<svg xmlns="http://www.w3.org/2000/svg" width="21" height="19" viewBox="0 0 21 19">
    <g fill="none" fill-rule="evenodd">
        <g fill-rule="nonzero">
            <g>
                <path fill="#E68808" d="M11.25 0h-1.5C4.368.005.006 3.218 0 7.184c0 .305.336.553.75.553h19.5c.414 0 .75-.248.75-.553C20.994 3.218 16.632.004 11.25 0z" transform="translate(-20 -21) translate(20 21)"/>
                <g fill="#FFF">
                    <path d="M5.474 1.79c.552 0 1 .298 1 .666v.667c0 .368-.448.666-1 .666-.553 0-1-.298-1-.666v-.667c0-.368.447-.667 1-.667zm-4-1c.552 0 1 .298 1 .666v.667c0 .368-.448.666-1 .666-.553 0-1-.298-1-.666v-.667c0-.368.447-.667 1-.667zm8 0c.552 0 1 .298 1 .666v.667c0 .368-.448.666-1 .666-.553 0-1-.298-1-.666v-.667c0-.368.447-.667 1-.667z" transform="translate(-20 -21) translate(20 21) translate(4.526 2.21)"/>
                </g>
                <path fill="#00C65C" d="M21 11.053L21 13.263 0 13.263 0 11.053zM21 16.579L21 18.789 0 18.789 0 16.579z" transform="translate(-20 -21) translate(20 21)"/>
            </g>
        </g>
    </g>
</svg>
