<svg xmlns="http://www.w3.org/2000/svg" width="16" height="16" viewBox="0 0 16 16">
    <g fill="none" fill-rule="evenodd">
        <g fill="#564B47" fill-rule="nonzero">
            <g>
                <path d="M5.778 0c3.19 0 5.778 2.587 5.778 5.778 0 1.43-.525 2.746-1.387 3.76l.24.24h.702l4.445 4.444-1.334 1.334-4.444-4.445v-.702l-.24-.24c-1.014.862-2.33 1.387-3.76 1.387C2.587 11.556 0 8.969 0 5.778 0 2.587 2.587 0 5.778 0m0 1.778c-2.222 0-4 1.778-4 4s1.778 4 4 4 4-1.778 4-4-1.778-4-4-4z" transform="translate(-31 -87) translate(31 87)"/>
            </g>
        </g>
    </g>
</svg>
